<?xml version="1.0" standalone="no"?>
<!DOCTYPE svg PUBLIC "-//W3C//DTD SVG 20010904//EN"
 "http://www.w3.org/TR/2001/REC-SVG-20010904/DTD/svg10.dtd">
<svg version="1.0" xmlns="http://www.w3.org/2000/svg"
 width="512.000000pt" height="512.000000pt" viewBox="0 0 512.000000 512.000000"
 preserveAspectRatio="xMidYMid meet">
<metadata>
Created by potrace 1.14, written by Peter Selinger 2001-2017
</metadata>
<g transform="translate(0.000000,512.000000) scale(0.100000,-0.100000)"
fill="#000000" stroke="none">
<path d="M2339 5116 c-2 -2 -42 -6 -89 -10 -101 -7 -137 -13 -290 -42 -116
-22 -296 -89 -395 -147 -155 -90 -268 -228 -322 -392 -21 -64 -26 -104 -29
-200 -5 -184 30 -342 121 -546 42 -95 43 -98 24 -114 -34 -32 -52 -98 -46
-172 3 -38 8 -77 10 -88 3 -11 8 -40 12 -65 4 -25 15 -61 25 -80 18 -34 18
-35 -10 -76 -102 -147 -87 -353 34 -490 43 -50 165 -124 202 -124 8 0 15 -9
15 -20 1 -11 2 -23 3 -27 1 -5 5 -26 10 -48 18 -90 94 -198 177 -251 90 -57
219 -77 313 -49 27 8 51 13 54 11 8 -8 -17 -42 -40 -54 -20 -10 -303 -97 -348
-107 -38 -8 -349 -106 -385 -120 -58 -25 -166 -98 -215 -147 -88 -88 -143
-177 -179 -289 -17 -54 -86 -390 -107 -524 -3 -22 -7 -42 -9 -45 -2 -3 -6 -24
-9 -46 -4 -22 -8 -49 -10 -59 -3 -11 -12 -56 -20 -100 -93 -474 -92 -467 -65
-539 21 -58 58 -99 114 -129 l40 -22 1623 -3 1623 -2 49 21 c111 48 167 167
138 294 -6 22 -12 51 -14 65 -9 50 -56 298 -75 395 -11 55 -22 114 -25 130 -3
17 -17 89 -31 160 -14 72 -27 141 -29 155 -3 14 -9 48 -15 76 -5 28 -12 64
-15 80 -32 190 -155 370 -329 479 -87 54 -97 58 -335 128 -451 134 -493 148
-511 168 -16 19 -25 39 -16 39 1 0 22 -6 47 -14 93 -28 217 -12 307 40 95 55
172 168 195 286 12 65 13 66 52 78 46 14 109 51 149 89 145 133 165 365 48
530 -18 25 -19 30 -5 50 17 24 54 213 54 279 0 46 -19 99 -48 137 -19 24 -19
25 15 97 45 94 97 251 116 353 24 126 16 310 -16 410 -69 213 -229 369 -477
467 -66 26 -201 66 -249 74 -14 2 -37 7 -51 9 -64 13 -58 12 -210 31 -42 6
-546 14 -551 10z m397 -165 c-3 -4 -27 -16 -53 -26 -72 -28 -248 -121 -337
-179 -43 -28 -81 -50 -85 -49 -3 1 -44 18 -91 37 -98 40 -202 69 -312 86 -77
13 -95 22 -60 33 163 52 304 80 457 93 44 4 81 7 82 8 8 7 403 3 399 -3z m404
-47 c0 -3 -30 -36 -66 -72 -96 -99 -169 -214 -217 -348 -27 -75 -55 -191 -59
-242 -2 -34 -7 -35 -93 -15 -61 14 -231 10 -320 -8 -102 -21 -243 -67 -317
-105 -58 -29 -60 -22 -22 69 125 296 467 537 989 698 98 30 105 32 105 23z
m318 -116 c134 -77 232 -192 265 -314 9 -33 17 -63 17 -65 0 -3 -24 -2 -52 2
-84 12 -275 2 -378 -20 -86 -18 -279 -79 -322 -102 -22 -12 -23 -5 -2 75 22
88 95 231 153 303 28 34 83 87 123 118 83 65 85 65 196 3z m-1736 -112 c130
-12 246 -37 353 -77 l55 -21 -41 -42 c-143 -150 -235 -345 -251 -531 -1 -5
-37 -32 -82 -58 -82 -48 -120 -89 -142 -151 -9 -27 -16 -31 -53 -34 l-42 -3
-31 68 c-39 86 -64 158 -90 253 -26 99 -33 284 -13 360 18 69 66 166 103 207
26 29 35 32 93 35 35 2 66 2 69 2 3 -1 35 -4 72 -8z m1968 -424 c19 -1 40 -6
47 -10 27 -17 -47 -302 -114 -434 -22 -45 -26 -48 -63 -48 -30 0 -42 5 -46 18
-29 91 -62 128 -170 190 -111 64 -286 152 -303 152 -52 0 107 66 244 101 124
32 232 40 405 31z m-921 -201 c136 -36 270 -95 463 -203 78 -44 110 -68 118
-88 16 -38 10 -584 -6 -600 -19 -19 -83 -31 -186 -35 -112 -5 -162 7 -279 66
-118 59 -193 81 -294 85 -117 5 -188 -13 -334 -80 -64 -30 -133 -59 -155 -65
-47 -12 -202 -8 -272 8 -47 11 -52 15 -57 44 -3 18 -6 151 -6 297 -1 202 2
269 11 282 15 21 221 139 339 195 246 118 453 147 658 94z m-1169 -611 l0
-160 -24 0 c-39 0 -77 39 -82 85 -3 22 -7 46 -10 54 -3 8 -7 38 -10 66 -9 81
17 113 94 114 l32 1 0 -160z m2026 133 c23 -25 25 -34 20 -78 -3 -27 -7 -61
-10 -75 -3 -14 -7 -41 -10 -60 -6 -41 -46 -80 -82 -80 l-24 0 0 160 0 160 40
0 c32 0 47 -6 66 -27z m-2049 -452 c26 -1 36 -7 49 -33 9 -18 22 -37 28 -43
46 -46 142 -73 291 -81 132 -8 213 10 362 80 140 65 170 74 254 74 77 0 140
-18 239 -68 118 -60 193 -81 300 -86 82 -4 190 8 280 31 8 2 18 4 22 4 18 2
86 74 92 96 5 21 13 25 46 27 22 1 48 2 57 2 10 1 29 -17 45 -40 36 -54 45
-136 23 -204 -23 -68 -96 -133 -167 -150 -107 -25 -134 -55 -139 -155 -5 -101
-57 -188 -136 -226 -85 -41 -166 -35 -245 18 -72 48 -162 40 -215 -20 -77 -88
-161 -120 -258 -98 -46 10 -67 23 -124 76 -98 90 -153 97 -255 33 -45 -28 -59
-32 -126 -32 -68 -1 -79 2 -121 31 -43 30 -86 83 -103 128 -4 11 -10 45 -13
75 -2 30 -9 69 -14 87 -11 35 -56 69 -104 76 -151 23 -245 188 -186 322 27 61
47 84 69 80 9 -2 32 -4 49 -4z m983 -1036 c90 0 101 2 169 36 l73 36 9 -26
c30 -83 78 -130 163 -160 l65 -23 -33 -60 c-196 -355 -563 -647 -1021 -812
-99 -35 -346 -106 -372 -106 -10 0 -13 28 -13 129 0 146 -8 167 -70 177 -28 5
-40 1 -63 -20 l-27 -25 0 -213 c-1 -117 -2 -358 -2 -535 l-1 -323 -234 0 -235
0 -28 29 c-33 33 -33 27 4 217 14 71 27 140 29 154 3 14 19 99 37 190 29 152
49 260 65 350 67 377 118 488 276 599 81 58 108 68 444 166 388 114 393 116
439 156 41 36 57 59 75 110 l9 26 73 -36 c68 -34 79 -36 169 -36z m717 -206
c23 -8 23 -9 6 -46 -33 -71 -141 -248 -201 -328 -152 -204 -352 -392 -562
-530 -103 -68 -291 -175 -307 -175 -21 0 -56 -51 -56 -82 0 -34 40 -78 72 -78
66 0 376 185 566 338 90 73 290 271 350 347 22 27 44 54 48 60 64 80 166 243
223 355 20 41 39 77 40 79 7 9 74 -11 74 -22 0 -7 -11 -48 -25 -92 -38 -117
-142 -323 -230 -454 -68 -101 -76 -118 -70 -147 11 -62 82 -84 129 -41 78 72
254 391 316 572 17 50 33 96 35 103 4 10 8 10 25 0 15 -10 19 -20 15 -38 -3
-14 -8 -38 -10 -55 -37 -217 -95 -401 -190 -602 -113 -237 -228 -388 -445
-583 -91 -82 -305 -208 -467 -274 l-62 -26 -476 0 c-373 0 -475 3 -476 13 -1
10 0 571 1 618 0 9 6 16 13 16 49 0 352 87 486 140 489 192 864 507 1066 896
28 54 32 57 60 51 17 -4 40 -10 52 -15z m672 -394 c32 -65 40 -93 76 -285 13
-69 26 -134 28 -145 3 -11 8 -40 13 -65 4 -25 8 -47 9 -50 0 -3 4 -23 8 -45 8
-42 38 -198 82 -430 15 -77 30 -151 33 -165 12 -57 6 -93 -22 -117 -27 -23
-30 -23 -259 -23 l-233 0 -1 412 -1 412 30 75 c67 169 110 306 144 465 l17 80
23 -30 c13 -16 37 -56 53 -89z m-426 -1057 l1 -263 -294 -3 c-161 -1 -292 -1
-289 2 2 2 47 32 99 68 52 35 109 75 125 88 62 50 262 258 305 318 24 34 46
60 48 57 2 -2 4 -122 5 -267z"/>
<path d="M2514 3991 c-11 -5 -33 -24 -48 -42 -25 -29 -27 -39 -22 -79 9 -67
51 -105 116 -105 43 0 54 5 82 33 28 28 33 39 33 82 0 42 -5 54 -31 81 -33 33
-91 46 -130 30z"/>
<path d="M2085 3754 c-11 -3 -46 -14 -77 -26 -68 -24 -93 -55 -85 -105 11 -65
55 -77 147 -42 63 24 119 22 196 -6 60 -21 97 -15 120 20 27 41 12 87 -36 114
-22 12 -55 27 -73 32 -38 11 -164 20 -192 13z"/>
<path d="M2875 3753 c-11 -3 -48 -18 -81 -34 -55 -26 -63 -34 -69 -65 -13 -74
44 -111 125 -80 74 28 129 30 198 7 79 -27 103 -26 130 2 51 54 16 121 -81
153 -50 17 -180 26 -222 17z"/>
<path d="M2380 2833 c-31 -11 -60 -47 -60 -73 0 -71 94 -115 245 -114 177 0
277 70 219 152 -27 38 -56 44 -120 22 -72 -25 -126 -25 -206 0 -34 11 -63 19
-63 19 0 0 -7 -3 -15 -6z"/>
<path d="M3085 997 c-11 -6 -50 -40 -86 -76 -36 -36 -91 -89 -122 -117 -62
-56 -72 -88 -42 -131 21 -30 78 -40 108 -20 51 36 233 210 249 240 33 62 -45
139 -107 104z"/>
</g>
</svg>
